<?xml version="1.0" encoding="iso-8859-1"?>
<!-- Generator: Adobe Illustrator 24.0.2, SVG Export Plug-In . SVG Version: 6.00 Build 0)  -->
<svg version="1.1" id="&#x5716;&#x5C64;_1" xmlns="http://www.w3.org/2000/svg" xmlns:xlink="http://www.w3.org/1999/xlink" x="0px"
	 y="0px" viewBox="0 0 24 21" style="enable-background:new 0 0 24 21;" xml:space="preserve">
<g>
	<path style="fill:#FFFFFF;" d="M11.999,6l-0.002,5.247c0,0.199,0.079,0.39,0.22,0.53l3.754,3.753l1.061-1.06l-3.534-3.533L13.499,6
		H11.999z M11.999,6"/>
	<path style="fill:#FFFFFF;" d="M13.5,0C8.221,0,3.852,3.921,3.12,9H0l3.75,3.75L7.5,9H4.635C5.353,4.75,9.049,1.5,13.5,1.5
		c4.963,0,9,4.037,9,9s-4.037,9-9,9c-2.79,0-5.377-1.263-7.097-3.464l-1.182,0.923C7.228,19.526,10.245,21,13.5,21
		C19.29,21,24,16.289,24,10.5S19.29,0,13.5,0L13.5,0z M13.5,0"/>
</g>
<g>
</g>
<g>
</g>
<g>
</g>
<g>
</g>
<g>
</g>
<g>
</g>
<g>
</g>
<g>
</g>
<g>
</g>
<g>
</g>
<g>
</g>
<g>
</g>
<g>
</g>
<g>
</g>
<g>
</g>
</svg>
