<?xml version="1.0" encoding="iso-8859-1"?>
<!-- Generator: Adobe Illustrator 24.0.2, SVG Export Plug-In . SVG Version: 6.00 Build 0)  -->
<svg version="1.1" id="&#x5716;&#x5C64;_1" xmlns="http://www.w3.org/2000/svg" xmlns:xlink="http://www.w3.org/1999/xlink" x="0px"
	 y="0px" viewBox="0 0 24 24" style="enable-background:new 0 0 24 24;" xml:space="preserve">
<g>
	<path style="fill:#FFFFFF;" d="M22.594,7.152V6.328c0-1.163-0.946-2.109-2.109-2.109h-0.703c0-0.62-0.152-1.146-0.618-1.612
		l-1.989-1.989C16.776,0.219,16.247,0,15.683,0H4.922C4.534,0,4.219,0.315,4.219,0.703v3.516H3.516
		c-1.163,0-2.109,0.946-2.109,2.109v0.824C0.588,7.442,0,8.224,0,9.141v7.125c0,1.163,0.946,2.109,2.109,2.109h2.109v4.922
		C4.219,23.685,4.534,24,4.922,24h14.156c0.388,0,0.703-0.315,0.703-0.703v-4.922h2.109c1.163,0,2.109-0.946,2.109-2.109V9.141
		C24,8.224,23.412,7.442,22.594,7.152z M21.188,6.328v0.703h-1.406V5.625h0.703C20.872,5.625,21.188,5.94,21.188,6.328z
		 M16.18,1.612l1.989,1.989c0.225,0.225,0.206,0.473,0.206,0.618h-2.812V1.406C15.695,1.406,15.952,1.383,16.18,1.612z M5.625,1.406
		h8.531v3.516c0,0.388,0.315,0.703,0.703,0.703h3.516v1.406H5.625V1.406z M2.812,6.328c0-0.388,0.315-0.703,0.703-0.703h0.703v1.406
		H2.812V6.328z M18.375,22.594H5.625v-7.031h12.75V22.594z M22.594,16.266c0,0.388-0.315,0.703-0.703,0.703h-2.109v-1.406h0.703
		c0.388,0,0.703-0.315,0.703-0.703s-0.315-0.703-0.703-0.703H3.516c-0.388,0-0.703,0.315-0.703,0.703s0.315,0.703,0.703,0.703h0.703
		v1.406H2.109c-0.388,0-0.703-0.315-0.703-0.703V9.141c0-0.388,0.315-0.703,0.703-0.703h19.781c0.388,0,0.703,0.315,0.703,0.703
		V16.266z"/>
	<path style="fill:#FFFFFF;" d="M6.328,9.844H3.516c-0.388,0-0.703,0.315-0.703,0.703s0.315,0.703,0.703,0.703h2.812
		c0.388,0,0.703-0.315,0.703-0.703S6.716,9.844,6.328,9.844z"/>
	<path style="fill:#FFFFFF;" d="M16.266,16.969H7.734c-0.388,0-0.703,0.315-0.703,0.703s0.315,0.703,0.703,0.703h8.531
		c0.388,0,0.703-0.315,0.703-0.703S16.654,16.969,16.266,16.969z"/>
	<path style="fill:#FFFFFF;" d="M16.266,19.781H7.734c-0.388,0-0.703,0.315-0.703,0.703c0,0.388,0.315,0.703,0.703,0.703h8.531
		c0.388,0,0.703-0.315,0.703-0.703C16.969,20.096,16.654,19.781,16.266,19.781z"/>
</g>
<g>
</g>
<g>
</g>
<g>
</g>
<g>
</g>
<g>
</g>
<g>
</g>
<g>
</g>
<g>
</g>
<g>
</g>
<g>
</g>
<g>
</g>
<g>
</g>
<g>
</g>
<g>
</g>
<g>
</g>
</svg>
