<?xml version="1.0" encoding="iso-8859-1"?>
<!-- Generator: Adobe Illustrator 24.0.2, SVG Export Plug-In . SVG Version: 6.00 Build 0)  -->
<svg version="1.1" id="&#x5716;&#x5C64;_1" xmlns="http://www.w3.org/2000/svg" xmlns:xlink="http://www.w3.org/1999/xlink" x="0px"
	 y="0px" viewBox="0 0 24 20" style="enable-background:new 0 0 24 20;" xml:space="preserve">
<g>
	<path style="fill:#FFFFFF;" d="M21.25,20H2.75C1.233,20,0,18.767,0,17.25V4.75C0,3.233,1.233,2,2.75,2h6
		C9.164,2,9.5,2.336,9.5,2.75c0,0.414-0.336,0.75-0.75,0.75h-6C2.061,3.5,1.5,4.061,1.5,4.75v12.5c0,0.689,0.561,1.25,1.25,1.25
		h18.5c0.689,0,1.25-0.561,1.25-1.25V4.75c0-0.689-0.561-1.25-1.25-1.25h-6c-0.414,0-0.75-0.336-0.75-0.75
		C14.5,2.336,14.836,2,15.25,2h6C22.767,2,24,3.233,24,4.75v12.5C24,18.767,22.767,20,21.25,20L21.25,20z M21.25,20"/>
	<path style="fill:#FFFFFF;" d="M14.25,5.5h-4.5C8.785,5.5,8,4.715,8,3.75v-2C8,0.785,8.785,0,9.75,0h4.5C15.215,0,16,0.785,16,1.75
		v2C16,4.715,15.215,5.5,14.25,5.5L14.25,5.5z M9.75,1.5C9.612,1.5,9.5,1.612,9.5,1.75v2C9.5,3.888,9.612,4,9.75,4h4.5
		c0.138,0,0.25-0.112,0.25-0.25v-2c0-0.138-0.112-0.25-0.25-0.25H9.75z M9.75,1.5"/>
	<path style="fill:#FFFFFF;" d="M7.5,12C6.122,12,5,10.878,5,9.5C5,8.122,6.122,7,7.5,7S10,8.122,10,9.5C10,10.878,8.878,12,7.5,12
		L7.5,12z M7.5,8.5c-0.551,0-1,0.449-1,1c0,0.551,0.449,1,1,1c0.551,0,1-0.449,1-1C8.5,8.949,8.051,8.5,7.5,8.5L7.5,8.5z M7.5,8.5"
		/>
	<path style="fill:#FFFFFF;" d="M11.25,17c-0.414,0-0.75-0.336-0.75-0.75v-0.5c0-0.689-0.561-1.25-1.25-1.25h-3.5
		c-0.689,0-1.25,0.561-1.25,1.25v0.5C4.5,16.664,4.164,17,3.75,17S3,16.664,3,16.25v-0.5C3,14.233,4.233,13,5.75,13h3.5
		c1.517,0,2.75,1.233,2.75,2.75v0.5C12,16.664,11.664,17,11.25,17L11.25,17z M11.25,17"/>
	<path style="fill:#FFFFFF;" d="M20.25,9h-5.5C14.336,9,14,8.664,14,8.25c0-0.414,0.336-0.75,0.75-0.75h5.5
		C20.664,7.5,21,7.836,21,8.25C21,8.664,20.664,9,20.25,9L20.25,9z M20.25,9"/>
	<path style="fill:#FFFFFF;" d="M20.25,13h-5.5C14.336,13,14,12.664,14,12.25s0.336-0.75,0.75-0.75h5.5
		c0.414,0,0.75,0.336,0.75,0.75S20.664,13,20.25,13L20.25,13z M20.25,13"/>
	<path style="fill:#FFFFFF;" d="M20.25,17h-5.5C14.336,17,14,16.664,14,16.25c0-0.414,0.336-0.75,0.75-0.75h5.5
		c0.414,0,0.75,0.336,0.75,0.75C21,16.664,20.664,17,20.25,17L20.25,17z M20.25,17"/>
</g>
<g>
</g>
<g>
</g>
<g>
</g>
<g>
</g>
<g>
</g>
<g>
</g>
<g>
</g>
<g>
</g>
<g>
</g>
<g>
</g>
<g>
</g>
<g>
</g>
<g>
</g>
<g>
</g>
<g>
</g>
</svg>
