<?xml version="1.0" encoding="utf-8"?>
<!-- Generator: Adobe Illustrator 25.4.1, SVG Export Plug-In . SVG Version: 6.00 Build 0)  -->
<svg version="1.1" id="圖層_1" xmlns="http://www.w3.org/2000/svg" xmlns:xlink="http://www.w3.org/1999/xlink" x="0px" y="0px"
	 viewBox="0 0 23.2 23.2" style="enable-background:new 0 0 23.2 23.2;" xml:space="preserve">
<style type="text/css">
	.st0{fill:#D93D1A;}
	.st1{fill:#FFFFFF;}
</style>
<circle class="st0" cx="11.6" cy="11.6" r="11.6"/>
<path class="st1" d="M10.8,17.6c-0.1,0-0.4,0-0.7-0.1c-0.2-0.1-1-0.6-1.1-0.8L4,11.9c-0.2-0.2-0.2-0.5,0-0.7L6,9.2
	C6.2,9,6.5,9,6.7,9.2l3.4,3.4c0.2,0.2,0.5,0.2,0.7,0l5.5-6.9c0.2-0.2,0.5-0.2,0.7-0.1l2.1,1.7c0.2,0.2,0.2,0.5,0.1,0.7l-6.8,8.5
	c-0.2,0.2-0.5,0.5-0.7,0.7C11.7,17.3,11.3,17.6,10.8,17.6C10.8,17.6,10.8,17.6,10.8,17.6z"/>
</svg>
