<svg xmlns="http://www.w3.org/2000/svg" viewBox="0 0 238.84 30.82"><defs><style>.cls-1{fill:#005ba4;}.cls-2{fill:#009580;}.cls-3{fill:#fff;}</style></defs><title>logo</title><g id="圖層_2" data-name="圖層 2"><g id="圖層_2-2" data-name="圖層 2"><path class="cls-1" d="M38.36.54H57.75v19h-2v-.85H40.38v.85h-2Zm2,1.64V17.07H55.76V2.18Zm9.44,10.73a24.29,24.29,0,0,1-1.31-6.72H41.23V4.55h7.19V2.82H50.3V4.55H55V6.19H50.32a18.1,18.1,0,0,0,.79,4.92,18.21,18.21,0,0,0,1.81-4.2l1.55.91a30,30,0,0,1-2.58,5.34,3,3,0,0,0,.44.81q.42.66.7.66T54,12.19l1.53,1.14q-1,3.32-2.56,3.32-1.23,0-2.32-2.08A15.92,15.92,0,0,1,48.4,16.9L47,15.49a9.71,9.71,0,0,0,1.62-1.31,68.4,68.4,0,0,1-7.13,1.31l-.33-1.79a45.78,45.78,0,0,0,7.74-1.12v1.33ZM41.91,7.35h5.57v4.86H41.91Zm3.91,1.51H43.59v1.83h2.23Zm6.93-4.31a5.6,5.6,0,0,0-1.13-1.83l1.51-.48a4.1,4.1,0,0,1,.66.79l.61.94Z"/><path class="cls-1" d="M80.92,16.88v2H60.31v-2ZM60.71,6.12v-2H80.55v2ZM66.5,16.22a39.16,39.16,0,0,0-2.64-8.68L66,6.93a39.19,39.19,0,0,1,2.86,8.68ZM70.76,4.13a28.8,28.8,0,0,0-3.72-3L68.62,0a20.7,20.7,0,0,1,3.74,2.7Zm6.69,3.26a43.45,43.45,0,0,1-2.89,8.8l-2.29-.7a36.83,36.83,0,0,0,3-8.64Z"/><path class="cls-1" d="M93.43,2.43h8.17V19.58H99.39V18.52H86.87v1.06H84.69V2.43h6.56A16.35,16.35,0,0,0,92.14,0l2.23.15L94,1.29A12,12,0,0,1,93.43,2.43Zm6,2H86.87V6.79H99.39ZM86.87,11.52H99.39V8.72H86.87Zm0,5H99.39V13.45H86.87Z"/><path class="cls-1" d="M110.35,14.3a15.63,15.63,0,0,1-2.84,5.11l-2-1.18a16.7,16.7,0,0,0,2.82-4.67Zm9.33-6a9.77,9.77,0,0,1-5.33,5.5l-1.27-1.72q4.31-1.91,5.22-5.4h-2.75a10.23,10.23,0,0,1-3.1,3.86A18.5,18.5,0,0,1,107,13.66l-1.2-1.85a12,12,0,0,0,4.63-2.28,11.39,11.39,0,0,0-2.64-1.87,3,3,0,0,1-.5.46l-.46.33-1.24-1.69a12.69,12.69,0,0,0,5-6.75l2,.54c-.13.26-.25.52-.35.77a1.62,1.62,0,0,1-.24.48h4.81v1a4.63,4.63,0,0,1-.55,2.1h2.3V.35h2.12V4.94h5.09V6.73H121.1a6.92,6.92,0,0,0,1.64,2.78,12,12,0,0,0,3.35,2.57l-1.23,1.74A13.08,13.08,0,0,1,119.68,8.35ZM109.06,6.48a19.62,19.62,0,0,1,2.84,1.89A5.78,5.78,0,0,0,113,7.06a10.55,10.55,0,0,0-3.13-1.57A11.23,11.23,0,0,1,109.06,6.48Zm1.75-2.26c.67.25,1.69.7,3.06,1.37a5.68,5.68,0,0,0,.85-2.18h-3.45A3.06,3.06,0,0,1,110.81,4.21Zm1.2,15.1q0-.69,0-1.85c0-1.11,0-2.09-.09-2.93l2.14-.08a30.35,30.35,0,0,1,.26,4.34v.44Zm5.66,0a30,30,0,0,0-.85-4.76l2.12-.18A23.55,23.55,0,0,1,120.07,19Zm5.7-14.64a28.23,28.23,0,0,0-2-2.62l1.53-1A30.27,30.27,0,0,1,125,3.51Zm.52,14.74a48.18,48.18,0,0,0-2.54-4.94l2-.83a42.28,42.28,0,0,1,2.73,4.77Z"/><path class="cls-1" d="M132.34,3a32.82,32.82,0,0,1-3.39.35l-.46-1.74a28.83,28.83,0,0,0,8.41-1.5l.74,1.71a26.79,26.79,0,0,1-3.3.85V5.63h3.32V7.41h-3.32V7.6Q136.8,9.76,138,11l-1.23,1.79a19.2,19.2,0,0,0-1.31-1.58q-.57-.64-1.16-1.39V19.5l-2,.08V11a20.32,20.32,0,0,1-3,4.65l-1.23-1.87a20.79,20.79,0,0,0,4.13-6.41h-4V5.63h4.07Zm5.07,11.9V13l7.32-1V0h2V11.73l2-.31v1.89l-2,.31v6h-2V13.87Zm4.74-4.21a32.62,32.62,0,0,0-4-2.76l1.29-1.39a30.32,30.32,0,0,1,4,2.55Zm.39-5a40.32,40.32,0,0,0-3.93-2.72l1.32-1.37a43.52,43.52,0,0,1,4,2.53Z"/><path class="cls-1" d="M167,11.32v1.52a28.12,28.12,0,0,1-4.74,1.8h9.07v1.68h-9.07v.85c0,1.48-.66,2.23-2,2.23h-3.21l-.5-1.68,3,.08c.44,0,.66-.21.66-.63v-.85h-9.49V14.63h9.49v-.89a38.4,38.4,0,0,0,3.82-.89h-9.2V11.32Zm1.95-.89H153.22v3h-1.95V8.78h1.09l-.24-8a21.74,21.74,0,0,0,4.81-.6l1,1.53a17.36,17.36,0,0,1-3.89.57l.07,1.06h3.41V4.78h-3.34l0,1.18h3.32V7.39H154.2l0,1.39h13.68l0-1.39h-3.06V6H168l0-1.18h-3.17V3.36h3.21l0-1.14h-3.47V.58H170l-.24,8.2H171v4.69h-2Zm-7.58-7.48a18.46,18.46,0,0,1-2.56,1.27l-1.12-1.39A9.43,9.43,0,0,0,160.14,2a16.38,16.38,0,0,0-1.49-1l1.18-1c.57.35,1.14.73,1.72,1.14A5.23,5.23,0,0,0,162.9,0L164,1A4.76,4.76,0,0,1,162.7,2.1q.44.37,1.16,1.1l-1.33.93C161.94,3.34,161.57,2.95,161.41,2.95Zm.13,4.26A10.53,10.53,0,0,1,159,8.37L158,7a8,8,0,0,0,2.27-.75c-.29-.21-.78-.54-1.46-1L160,4.32c.27.18.53.33.77.45s.58.4.91.64a7.82,7.82,0,0,0,1.51-1.29l1.16.93a13.65,13.65,0,0,1-1.49,1.25q.63.52,1.25,1.1l-1.4,1C162,7.61,161.65,7.2,161.54,7.2Z"/><path class="cls-1" d="M173.33,7V5.17h2.29V0h2V5.17h1.73V7h-1.73V19.58h-2V7Zm13.92-7V1.85h3.12a7.5,7.5,0,0,0-1.11-1.1l1.4-.75a10.39,10.39,0,0,1,1.44,1.29L191,1.85h3V3.51h-6.69v.87H193v6.15q0,1.54-.44,1.87a2.2,2.2,0,0,1-1.18.37v.62h2.56v1.75h-2.56v2c0,1.48-.66,2.23-2,2.23h-2.27l-.5-1.83,2.21.09c.44,0,.65-.21.65-.61V15.14h-6.42a24.1,24.1,0,0,1,2.38,2.37l-1.6,1.33a20.21,20.21,0,0,0-2.38-2.64l1.42-1.06H179V13.39h10.45v-.62h-.61l-.46-1.41,2.12,0c.41,0,.61-.18.61-.54v-.29h-3.89v1.78h-1.88V10.57H182v2.18h-1.86V4.38h5.23V3.51h-5.82V1.85h5.82V0Zm-1.88,6.81v-1H182v1Zm0,2.38V8.16H182V9.22Zm5.77-2.38v-1h-3.89v1Zm0,2.38V8.16h-3.89V9.22Z"/><path class="cls-1" d="M197.92,9.51,196,8.86a22,22,0,0,0,1.16-7.18l1.82.18c0,.52,0,.93,0,1.25s0,.81-.06,1.14h1.42V0h2V4.26h1.92V6.15h-1.92V9.68c.93-.38,1.62-.68,2.07-.91l.35,1.93q-1.18.58-2.42,1.1v7.78h-2V12.52a18.6,18.6,0,0,1-1.75.7l-1.68.62-.83-2q2.95-.9,4.26-1.46V6.15h-1.64A27.18,27.18,0,0,1,197.92,9.51Zm15.34-4.9a18,18,0,0,1-2.18,8.68,16.46,16.46,0,0,1-4.78,5.48l-1.6-1.64A14.26,14.26,0,0,0,209.37,12a14.53,14.53,0,0,0,1.95-7.37v0h-.92a14.14,14.14,0,0,1-5.07,9.61l-1.62-1.62a10.83,10.83,0,0,0,4.76-8h-1a10.37,10.37,0,0,1-2.05,3.57l-1.68-1.31A11.55,11.55,0,0,0,206.57,0l2.12.19a19,19,0,0,1-.61,2.64H216V4.11q0,6-.2,9.78t-.92,4.59c-.47.55-1.54.83-3.21.83q-.79,0-1.46,0l-.5-2.27a17.33,17.33,0,0,0,2.36.19,1.8,1.8,0,0,0,1.24-.33,6.78,6.78,0,0,0,.52-2.8q.26-3.18.27-7.25c0-.91,0-1.66,0-2.24Z"/><path class="cls-1" d="M224.08,1.66a16.62,16.62,0,0,1-4.79,4.42l-.74-1.62A16.18,16.18,0,0,0,223.21.12h1.62q1.59,1.39,3.13,2.93l-1.2,1.47Q225.53,3.08,224.08,1.66Zm3.13,11.71h-5.33v3.47c1.43-.29,2.53-.56,3.3-.79a13.46,13.46,0,0,0-1.07-1.77l1.58-.64a19.07,19.07,0,0,1,2.62,4.3l-1.84.85a7.3,7.3,0,0,0-.63-1.37,41.61,41.61,0,0,1-6.88,1.72l-.39-1.79a7.66,7.66,0,0,0,1.35-.23V5.64h3.41a7.36,7.36,0,0,0-.72-1.95l1.68-.23a6.6,6.6,0,0,1,.92,2.18h2Zm-1.9-6.23h-3.43V8.72h3.43Zm-3.43,4.73h3.43V10.13h-3.43Zm6.93-5.81H228V1.93h4.44a5.24,5.24,0,0,0-.72-1.64L233.57,0A7.62,7.62,0,0,1,234,1c.11.34.24.66.37,1h4.44V6.06h-1.31v4.75h-6.86v1.62h7.71v7.14H236.5V18.37h-5.84v1.21H228.8Zm8.2-.81V3.65h-7.15v1.6ZM235.69,7h-5V9.09h5Zm.81,7.16h-5.84v2.53h5.84Z"/><path class="cls-1" d="M43.92,30.71h-1l-3.6-5.3a2.14,2.14,0,0,1-.22-.42h0a6.6,6.6,0,0,1,0,.91v4.8h-.82V24.06h1.06l3.5,5.22c.15.22.24.36.28.45h0a6.88,6.88,0,0,1,0-1V24.06h.82Z"/><path class="cls-1" d="M51.37,30.82h-.91L49.72,29h-3l-.7,1.86h-.91l2.68-6.65h.85Zm-1.92-2.56-1.1-2.83a2.55,2.55,0,0,1-.11-.45h0a2.44,2.44,0,0,1-.11.45L47,28.26Z"/><path class="cls-1" d="M56,24.88H54v5.94h-.82V24.88h-2v-.7H56Z"/><path class="cls-1" d="M58.82,24.17v.67h-.68v5.31h.68v.67H56.64v-.67h.68V24.84h-.68v-.67Z"/><path class="cls-1" d="M63,30.82a3.15,3.15,0,0,1-2.39-.93,3.35,3.35,0,0,1-.89-2.42,3.54,3.54,0,0,1,.91-2.56,3.28,3.28,0,0,1,2.48-1,3.08,3.08,0,0,1,2.34.93,3.37,3.37,0,0,1,.88,2.42,3.57,3.57,0,0,1-.91,2.57A3.21,3.21,0,0,1,63,30.82Zm.06-6.16a2.31,2.31,0,0,0-1.79.76,3.22,3.22,0,0,0,0,4,2.23,2.23,0,0,0,1.75.75,2.35,2.35,0,0,0,1.81-.71,2.82,2.82,0,0,0,.66-2,3,3,0,0,0-.64-2A2.27,2.27,0,0,0,63.06,24.66Z"/><path class="cls-1" d="M73.56,30.82h-1L69,25.52a2.2,2.2,0,0,1-.22-.42h0a6.47,6.47,0,0,1,0,.91v4.8h-.82V24.17H69l3.51,5.22c.15.22.24.36.28.45h0a6.54,6.54,0,0,1,0-1V24.17h.82Z"/><path class="cls-1" d="M81,30.82H80.1L79.36,29h-3l-.7,1.86h-.91l2.68-6.65h.85Zm-1.92-2.56L78,25.43a2.55,2.55,0,0,1-.11-.45h0a2.37,2.37,0,0,1-.11.45l-1.09,2.83Z"/><path class="cls-1" d="M85.87,30.82H82.24V24.17h.82v5.94h2.81Z"/><path class="cls-1" d="M98,30.71h-.81V26.25c0-.35,0-.78.07-1.29h0a3.94,3.94,0,0,1-.21.65l-2.39,5.11h-.4l-2.39-5.07A3.94,3.94,0,0,1,91.6,25h0q0,.4,0,1.3v4.45h-.79V24.06h1.08l2.15,4.64a5.59,5.59,0,0,1,.32.8h0c.14-.37.25-.64.34-.82l2.19-4.62h1Z"/><path class="cls-1" d="M105.12,28q0,2.8-2.66,2.8t-2.55-2.69V24.06h.82v4q0,2,1.81,2t1.75-2V24.06h.82Z"/><path class="cls-1" d="M106.74,30.44v-.92a1.86,1.86,0,0,0,.4.25,3.63,3.63,0,0,0,.49.19,4.47,4.47,0,0,0,.52.12,2.89,2.89,0,0,0,.48,0,2,2,0,0,0,1.13-.27.89.89,0,0,0,.37-.77.86.86,0,0,0-.13-.47,1.38,1.38,0,0,0-.34-.37,3.35,3.35,0,0,0-.52-.31l-.65-.32c-.24-.12-.47-.24-.68-.36a3,3,0,0,1-.55-.4,1.66,1.66,0,0,1-.37-.49,1.6,1.6,0,0,1,.07-1.44,1.77,1.77,0,0,1,.55-.55,2.55,2.55,0,0,1,.78-.33,3.75,3.75,0,0,1,.89-.11,3.58,3.58,0,0,1,1.51.24v.88a2.85,2.85,0,0,0-1.59-.41,2.79,2.79,0,0,0-.54.05,1.54,1.54,0,0,0-.48.18,1,1,0,0,0-.34.31.79.79,0,0,0-.13.46.9.9,0,0,0,.1.44,1.09,1.09,0,0,0,.3.34,3,3,0,0,0,.47.3l.65.31c.25.12.49.24.71.37a3.24,3.24,0,0,1,.59.43,2,2,0,0,1,.4.52A1.43,1.43,0,0,1,111,29a1.6,1.6,0,0,1-.2.83,1.64,1.64,0,0,1-.55.55,2.52,2.52,0,0,1-.79.31,4.53,4.53,0,0,1-.95.09l-.41,0-.5-.07a3.74,3.74,0,0,1-.48-.12A1.63,1.63,0,0,1,106.74,30.44Z"/><path class="cls-1" d="M116.29,30.71h-3.71V24.06h3.55v.71H113.4V27h2.53v.7H113.4V30h2.89Z"/><path class="cls-1" d="M123,28q0,2.8-2.66,2.8t-2.55-2.69V24.06h.82v4q0,2,1.81,2t1.75-2V24.06H123Z"/><path class="cls-1" d="M132,30.71h-.81V26.25c0-.35,0-.78.07-1.29h0a3.91,3.91,0,0,1-.21.65l-2.39,5.11h-.4l-2.39-5.07a3.73,3.73,0,0,1-.21-.68h0q0,.4,0,1.3v4.45h-.79V24.06H126l2.15,4.64a5.86,5.86,0,0,1,.32.8h0c.14-.37.25-.64.34-.82L131,24.06h1Z"/><path class="cls-1" d="M139.83,30.82a3.16,3.16,0,0,1-2.38-.93,3.36,3.36,0,0,1-.89-2.43,3.55,3.55,0,0,1,.91-2.56,3.28,3.28,0,0,1,2.48-1,3.09,3.09,0,0,1,2.34.93,3.37,3.37,0,0,1,.89,2.42,3.56,3.56,0,0,1-.91,2.57A3.21,3.21,0,0,1,139.83,30.82Zm.06-6.17a2.31,2.31,0,0,0-1.79.76,3.23,3.23,0,0,0,0,4,2.24,2.24,0,0,0,1.75.75,2.36,2.36,0,0,0,1.81-.71,2.82,2.82,0,0,0,.66-2,3,3,0,0,0-.64-2A2.27,2.27,0,0,0,139.89,24.65Z"/><path class="cls-1" d="M148.3,24.77h-2.73v2.3h2.53v.7h-2.53v2.94h-.82V24.06h3.55Z"/><path class="cls-1" d="M158.7,30.71h-1l-3.6-5.3a2.12,2.12,0,0,1-.23-.42h0a6.64,6.64,0,0,1,0,.91v4.8h-.82V24.06h1.06l3.5,5.22c.15.22.24.36.28.44h0a7,7,0,0,1,0-1V24.06h.82Z"/><path class="cls-1" d="M166.15,30.71h-.91l-.74-1.86h-3l-.7,1.86h-.91l2.68-6.65h.85Zm-1.92-2.56-1.1-2.83a2.6,2.6,0,0,1-.11-.45h0a2.47,2.47,0,0,1-.11.45l-1.09,2.83Z"/><path class="cls-1" d="M170.8,24.77h-2v5.94H168V24.77h-2v-.71h4.86Z"/><path class="cls-1" d="M177.22,28q0,2.8-2.66,2.8T172,28.13V24.06h.82v4q0,2,1.81,2t1.75-2V24.06h.82Z"/><path class="cls-1" d="M184.18,30.71h-1L182,28.85a3.57,3.57,0,0,0-.31-.44,1.73,1.73,0,0,0-.31-.3,1.16,1.16,0,0,0-.34-.17,1.51,1.51,0,0,0-.41-.05H180v2.83h-.82V24.06h2.09a3.24,3.24,0,0,1,.85.11,2,2,0,0,1,.67.33,1.57,1.57,0,0,1,.45.55,1.76,1.76,0,0,1,.16.78,1.81,1.81,0,0,1-.11.64A1.63,1.63,0,0,1,183,27a1.84,1.84,0,0,1-.49.39,2.53,2.53,0,0,1-.64.25v0a1.4,1.4,0,0,1,.3.17,1.6,1.6,0,0,1,.25.22,3.47,3.47,0,0,1,.23.3l.26.38ZM180,24.77v2.41h1.11a1.81,1.81,0,0,0,.57-.09,1.35,1.35,0,0,0,.45-.26,1.12,1.12,0,0,0,.3-.4,1.27,1.27,0,0,0,.11-.53,1,1,0,0,0-.36-.83,1.63,1.63,0,0,0-1.05-.3Z"/><path class="cls-1" d="M190.76,30.71h-.91l-.74-1.86h-3l-.7,1.86h-.91l2.68-6.65h.85Zm-1.92-2.56-1.1-2.83a2.65,2.65,0,0,1-.11-.45h0a2.28,2.28,0,0,1-.11.45l-1.09,2.83Z"/><path class="cls-1" d="M195.62,30.71H192V24.06h.82V30h2.81Z"/><path class="cls-1" d="M200.36,30.44v-.92a2,2,0,0,0,.4.25,3.49,3.49,0,0,0,.49.19,3.69,3.69,0,0,0,.52.12,3.29,3.29,0,0,0,.48,0,2,2,0,0,0,1.13-.27.89.89,0,0,0,.37-.77.87.87,0,0,0-.12-.47,1.37,1.37,0,0,0-.34-.36,3.45,3.45,0,0,0-.52-.31l-.65-.32-.68-.36a2.83,2.83,0,0,1-.55-.4,1.69,1.69,0,0,1-.37-.49,1.61,1.61,0,0,1,.08-1.44,1.76,1.76,0,0,1,.55-.55,2.54,2.54,0,0,1,.78-.33,3.73,3.73,0,0,1,.89-.11,3.58,3.58,0,0,1,1.51.24v.88a2.84,2.84,0,0,0-1.59-.41,2.81,2.81,0,0,0-.54.05,1.56,1.56,0,0,0-.48.18,1,1,0,0,0-.34.31.8.8,0,0,0-.13.46.91.91,0,0,0,.1.44,1.09,1.09,0,0,0,.3.34,2.85,2.85,0,0,0,.48.3l.65.31c.25.12.49.24.71.37a3.3,3.3,0,0,1,.59.43,1.92,1.92,0,0,1,.4.52,1.41,1.41,0,0,1,.15.66,1.62,1.62,0,0,1-.2.83,1.65,1.65,0,0,1-.55.56,2.51,2.51,0,0,1-.79.31,4.68,4.68,0,0,1-.95.09l-.41,0-.5-.07a4.1,4.1,0,0,1-.48-.12A1.5,1.5,0,0,1,200.36,30.44Z"/><path class="cls-1" d="M211,30.43a4.29,4.29,0,0,1-1.93.39,3.2,3.2,0,0,1-2.39-.91,3.28,3.28,0,0,1-.9-2.4,3.43,3.43,0,0,1,1-2.58,3.51,3.51,0,0,1,2.56-1,4.32,4.32,0,0,1,1.65.28v.83a3.48,3.48,0,0,0-1.66-.4,2.61,2.61,0,0,0-2,.77,2.8,2.8,0,0,0-.75,2,2.66,2.66,0,0,0,.7,1.94,2.43,2.43,0,0,0,1.84.72,3.59,3.59,0,0,0,1.83-.45Z"/><path class="cls-1" d="M214.09,24.06v.67h-.68V30h.68v.67H211.9V30h.68V24.73h-.68v-.67Z"/><path class="cls-1" d="M219.15,30.71h-3.71V24.06H219v.71h-2.73V27h2.53v.7h-2.53V30h2.89Z"/><path class="cls-1" d="M226.34,30.71h-1l-3.6-5.3a2.3,2.3,0,0,1-.22-.42h0a6.39,6.39,0,0,1,0,.91v4.8h-.82V24.06h1.06l3.5,5.22c.15.22.24.36.28.45h0a6.65,6.65,0,0,1,0-1V24.06h.82Z"/><path class="cls-1" d="M233.14,30.43a4.29,4.29,0,0,1-1.93.39,3.2,3.2,0,0,1-2.39-.91,3.27,3.27,0,0,1-.9-2.4,3.43,3.43,0,0,1,1-2.58,3.51,3.51,0,0,1,2.56-1,4.31,4.31,0,0,1,1.65.28v.83a3.48,3.48,0,0,0-1.66-.4,2.61,2.61,0,0,0-2,.77,2.8,2.8,0,0,0-.75,2,2.66,2.66,0,0,0,.7,1.94,2.44,2.44,0,0,0,1.84.72,3.59,3.59,0,0,0,1.83-.45Z"/><path class="cls-1" d="M238.47,30.71h-3.71V24.06h3.55v.71h-2.73V27h2.53v.7h-2.53V30h2.89Z"/><rect class="cls-2" width="30.82" height="30.82"/><rect class="cls-1" y="25.96" width="30.82" height="4.86"/><path class="cls-3" d="M17.51,7.21a.2.2,0,0,1-.22-.08L16,7.55a.63.63,0,0,1,0,.14s0,0,0,0l.9.1s0,0,0,0a.14.14,0,0,1,.18,0A.13.13,0,0,1,17,8a.11.11,0,0,1-.06-.08L16,7.83A.68.68,0,0,1,16,8l.76.45h0a.14.14,0,0,1,.19,0,.13.13,0,0,1,0,.18.13.13,0,0,1-.18,0,.13.13,0,0,1,0-.09l-.77-.45a.41.41,0,0,1-.1.09l.77,1.09a.2.2,0,0,1,.22.07.21.21,0,0,1-.05.3.2.2,0,0,1-.28-.28l-.76-1.09-.16.07.18.9a.14.14,0,0,1,.08,0,.13.13,0,0,1,0,.19.13.13,0,0,1-.19,0,.13.13,0,0,1,0-.18h0l-.18-.89h-.06s-.07,0-.11,0l-.21.88a.13.13,0,0,1,.05.08.13.13,0,0,1-.11.16.13.13,0,1,1,0-.26h0l.21-.88-.13-.07-.79,1.1A.2.2,0,0,1,14,9.6a.21.21,0,0,1,0-.3.2.2,0,0,1,.22-.06L15,8.13A.55.55,0,0,1,14.86,8l-.78.46a.14.14,0,0,1,0,.09.13.13,0,0,1-.18,0,.12.12,0,0,1,0-.18.13.13,0,0,1,.18,0v0l.78-.46a.45.45,0,0,1,0-.15l-.94.09a.12.12,0,0,1-.06.07.13.13,0,0,1-.18,0,.13.13,0,1,1,.23-.14s0,0,0,0l.92-.09a.47.47,0,0,1,0-.13l-1.28-.42a.19.19,0,0,1-.22.07A.2.2,0,0,1,13.17,7a.21.21,0,0,1,.26-.14.22.22,0,0,1,.13.19l1.28.43a.79.79,0,0,1,.1-.15l-.69-.62h0a.13.13,0,0,1-.18-.07.12.12,0,0,1,.07-.17.13.13,0,0,1,.17.07.17.17,0,0,1,0,.09l.7.63a.84.84,0,0,1,.13-.11l-.38-.82h0a.14.14,0,0,1-.13-.13.13.13,0,0,1,.27,0,.13.13,0,0,1,0,.08l.39.84.1,0V5.72a.19.19,0,0,1-.14-.18.21.21,0,0,1,.21-.21.21.21,0,0,1,.21.21.2.2,0,0,1-.14.18V7.06l.14,0L16,6.27a.14.14,0,0,1,0-.08A.13.13,0,0,1,16.09,6a.13.13,0,0,1,.13.14.13.13,0,0,1-.13.13h0l-.38.82a.7.7,0,0,1,.13.12l.72-.61h0a.14.14,0,1,1,.16.09.11.11,0,0,1-.09,0l-.71.61a.85.85,0,0,1,.07.11L17.25,7a.2.2,0,0,1,.13-.19.21.21,0,0,1,.14.41ZM18.83,7A1.55,1.55,0,0,0,17.29,5.5a1.49,1.49,0,0,0-.44.09,1.53,1.53,0,0,0-3,.1,1.56,1.56,0,0,0-.34-.07,1.55,1.55,0,0,0-1.54,1.55A1.53,1.53,0,0,0,13,8.62a1.49,1.49,0,0,0-.25.79A1.55,1.55,0,0,0,14.26,11a1.52,1.52,0,0,0,1.21-.63,1.52,1.52,0,0,0,1.16.56,1.55,1.55,0,0,0,1.55-1.55,1.52,1.52,0,0,0-.3-.87A1.55,1.55,0,0,0,18.83,7Z"/><path class="cls-3" d="M4.74,4.9H4.9C6,5,7.1,5.36,7.17,6.82v.13s0,.13,0,.16A1.39,1.39,0,0,1,5.73,8.35l-.15,0a1,1,0,0,1-.71-1.26V7a.71.71,0,0,1,.44-.4h.09A1,1,0,0,1,6,7a1,1,0,0,0-1.32-.8,1.4,1.4,0,0,0-.84,1.93A3.11,3.11,0,0,0,5.27,9.63a4.66,4.66,0,0,0,2.3.82,9,9,0,0,1,2.8.48,10.26,10.26,0,0,1,2.14,1.3,6.75,6.75,0,0,1,1.86,2.66A19.33,19.33,0,0,1,15,17s0,.16,0,.19a18.82,18.82,0,0,1,.1,2.14,6.78,6.78,0,0,1-.69,2.72,3.35,3.35,0,0,1-1.28,1.24,2.9,2.9,0,0,1-1.87.17l-.1,0a3.2,3.2,0,0,1-1.34-1.19l-.07-.12A2.37,2.37,0,0,1,9.8,20a2.1,2.1,0,0,1,.83-.88,2.21,2.21,0,0,1,1.19-.27l.19,0a2,2,0,0,1,1.09.74,1.44,1.44,0,0,1,.16,1.43.9.9,0,0,1-.92.55c-.45,0-.78-.17-.83-.66a1.7,1.7,0,0,1,.09-.77c.1-.23,0-.27-.18-.11l-.24.21-.11.11a1.28,1.28,0,0,0-.28,1,1.34,1.34,0,0,0,1.11,1,1.68,1.68,0,0,0,1.44-.75,3.17,3.17,0,0,0,.51-1.28,6.07,6.07,0,0,0,0-1.8,10.25,10.25,0,0,0-.48-1.87A6.28,6.28,0,0,0,12,14.65a6.15,6.15,0,0,0-2-1.16,5.14,5.14,0,0,0-2.16-.23,4.64,4.64,0,0,1-1.7-.11A5.2,5.2,0,0,1,2.26,8.29V7.9C2.38,5.9,3.29,5,4.74,4.9Z"/><path class="cls-3" d="M26.08,4.9h-.16c-1.07.07-2.21.46-2.27,1.92v.13s0,.13,0,.16a1.39,1.39,0,0,0,1.42,1.24l.14,0a1,1,0,0,0,.72-1.26V7a.7.7,0,0,0-.44-.4h-.09a1,1,0,0,0-.59.35,1,1,0,0,1,1.32-.8A1.4,1.4,0,0,1,27,8.09a3.12,3.12,0,0,1-1.42,1.54,4.66,4.66,0,0,1-2.3.82,9,9,0,0,0-2.8.48,10.24,10.24,0,0,0-2.14,1.3,6.76,6.76,0,0,0-1.86,2.66A19.18,19.18,0,0,0,15.84,17s0,.16,0,.19a18.67,18.67,0,0,0-.1,2.14,6.8,6.8,0,0,0,.69,2.72,3.35,3.35,0,0,0,1.28,1.24,2.9,2.9,0,0,0,1.87.17l.1,0A3.2,3.2,0,0,0,21,22.23l.07-.12A2.37,2.37,0,0,0,21,20a2.1,2.1,0,0,0-.83-.88A2.22,2.22,0,0,0,19,18.89l-.19,0a2,2,0,0,0-1.09.74,1.44,1.44,0,0,0-.16,1.43.9.9,0,0,0,.92.55c.45,0,.78-.17.83-.66a1.71,1.71,0,0,0-.09-.77c-.1-.23,0-.27.18-.11l.24.21.1.11a1.28,1.28,0,0,1,.28,1,1.34,1.34,0,0,1-1.11,1,1.68,1.68,0,0,1-1.44-.75A3.18,3.18,0,0,1,17,20.38a6.09,6.09,0,0,1,0-1.8,10.19,10.19,0,0,1,.48-1.87,6.26,6.26,0,0,1,1.38-2.06,6.14,6.14,0,0,1,2-1.16A5.14,5.14,0,0,1,23,13.26a4.64,4.64,0,0,0,1.7-.11,5.2,5.2,0,0,0,3.89-4.85V7.9C28.44,5.9,27.54,5,26.08,4.9Z"/></g></g></svg>