<?xml version="1.0" encoding="iso-8859-1"?>
<!-- Generator: Adobe Illustrator 24.0.2, SVG Export Plug-In . SVG Version: 6.00 Build 0)  -->
<svg version="1.1" id="&#x5716;&#x5C64;_1" xmlns="http://www.w3.org/2000/svg" xmlns:xlink="http://www.w3.org/1999/xlink" x="0px"
	 y="0px" viewBox="0 0 50 45" style="enable-background:new 0 0 50 45;" xml:space="preserve">
<g>
	<path style="fill:#FFFFFF;" d="M25.17,27.183h-0.341c-1.647,0-2.987-1.341-2.987-2.988c0-0.433,0.351-0.784,0.784-0.784
		c0.433,0,0.784,0.351,0.784,0.784c0,0.783,0.637,1.42,1.42,1.42h0.341c0.783,0,1.42-0.637,1.42-1.42c0-0.695-0.566-1.26-1.261-1.26
		h-0.659c-1.559,0-2.828-1.269-2.828-2.829c0-1.647,1.34-2.987,2.987-2.987h0.341c1.647,0,2.988,1.34,2.988,2.987
		c0,0.433-0.351,0.784-0.784,0.784c-0.433,0-0.784-0.351-0.784-0.784c0-0.783-0.637-1.42-1.42-1.42h-0.341
		c-0.783,0-1.42,0.637-1.42,1.42c0,0.695,0.566,1.261,1.261,1.261h0.659c1.559,0,2.828,1.269,2.828,2.828
		C28.158,25.842,26.818,27.183,25.17,27.183z"/>
	<path style="fill:#FFFFFF;" d="M25,18.686c-0.433,0-0.784-0.351-0.784-0.784V16.28c0-0.433,0.351-0.784,0.784-0.784
		s0.784,0.351,0.784,0.784v1.622C25.784,18.335,25.433,18.686,25,18.686z"/>
	<path style="fill:#FFFFFF;" d="M25,32.12c-5.497,0-9.97-4.473-9.97-9.97c0-5.498,4.472-9.97,9.97-9.97s9.97,4.472,9.97,9.97
		C34.97,27.648,30.497,32.12,25,32.12z M25,13.748c-4.633,0-8.402,3.769-8.402,8.402s3.769,8.402,8.402,8.402
		c4.633,0,8.402-3.769,8.402-8.402S29.633,13.748,25,13.748z"/>
	<path style="fill:#FFFFFF;" d="M25,28.805c-0.433,0-0.784-0.351-0.784-0.784v-1.622c0-0.433,0.351-0.784,0.784-0.784
		s0.784,0.351,0.784,0.784v1.622C25.784,28.454,25.433,28.805,25,28.805z"/>
	<path style="fill:#FFFFFF;" d="M4.55,16.107c-1.96,0-3.773-1.278-4.36-3.25c-0.715-2.403,0.658-4.94,3.061-5.656
		c2.402-0.713,4.939,0.658,5.655,3.061c0.715,2.403-0.658,4.94-3.061,5.656C5.413,16.046,4.978,16.107,4.55,16.107z M4.546,8.58
		c-0.281,0-0.566,0.04-0.849,0.124c-0.763,0.227-1.391,0.737-1.77,1.437c-0.379,0.7-0.462,1.505-0.235,2.268
		c0.468,1.574,2.129,2.472,3.705,2.005c1.574-0.469,2.474-2.131,2.005-3.706C7.018,9.418,5.83,8.58,4.546,8.58z"/>
	<path style="fill:#FFFFFF;" d="M45.455,16.107c-1.96,0-3.773-1.278-4.36-3.25c-0.346-1.164-0.219-2.393,0.359-3.462
		c0.578-1.068,1.537-1.847,2.702-2.194c2.401-0.713,4.94,0.658,5.656,3.061c0.715,2.403-0.658,4.94-3.061,5.656
		C46.318,16.046,45.883,16.107,45.455,16.107z M45.451,8.58c-0.281,0-0.566,0.04-0.849,0.124c-0.762,0.227-1.391,0.737-1.77,1.437
		c-0.379,0.7-0.462,1.505-0.235,2.268c0.468,1.574,2.13,2.472,3.705,2.005c1.574-0.469,2.474-2.131,2.005-3.706
		C47.923,9.418,46.735,8.58,45.451,8.58z"/>
	<path style="fill:#FFFFFF;" d="M7.892,37.987c-0.403,0-0.74-0.307-0.78-0.707c-0.004-0.037-0.008-0.083-0.008-0.114L7.053,21.17
		c-0.006-1.311-0.959-2.414-2.168-2.513c-0.678-0.056-1.319,0.165-1.812,0.622c-0.486,0.451-0.764,1.089-0.76,1.751l0.051,16.17
		c0.001,0.433-0.348,0.785-0.781,0.786c-0.434,0-0.785-0.349-0.786-0.781L0.745,21.037C0.74,19.937,1.2,18.877,2.009,18.129
		c0.807-0.747,1.903-1.119,3.005-1.034c2.012,0.165,3.597,1.951,3.608,4.068l0.051,15.962c0.024,0.473-0.31,0.841-0.743,0.862
		C7.917,37.987,7.904,37.987,7.892,37.987z"/>
	<path style="fill:#FFFFFF;" d="M42.238,37.987c-0.452-0.01-0.794-0.37-0.784-0.802c0-0.017,0.001-0.037,0.003-0.058l0.051-15.964
		c0.01-2.117,1.595-3.904,3.608-4.068c1.101-0.086,2.197,0.287,3.005,1.034c0.808,0.748,1.268,1.809,1.263,2.909l-0.051,16.168
		c-0.001,0.432-0.352,0.781-0.784,0.781c-0.435-0.001-0.785-0.353-0.784-0.786l0.051-16.169c0.003-0.664-0.274-1.302-0.76-1.753
		c-0.493-0.456-1.135-0.677-1.812-0.622c-1.209,0.099-2.162,1.202-2.168,2.513l-0.051,15.998c0,0.029-0.003,0.069-0.007,0.103
		C42.984,37.674,42.646,37.987,42.238,37.987z"/>
	<path style="fill:#FFFFFF;" d="M25,13.748H12.649c-0.433,0-0.784-0.351-0.784-0.784c0-0.433,0.351-0.784,0.784-0.784H25
		c0.433,0,0.784,0.351,0.784,0.784C25.784,13.397,25.433,13.748,25,13.748z"/>
	<path style="fill:#FFFFFF;" d="M14.779,15.395c-0.168,0-0.336-0.053-0.479-0.163l-2.131-1.647c-0.192-0.149-0.304-0.378-0.304-0.62
		c0-0.242,0.112-0.472,0.304-0.62l2.131-1.647c0.343-0.264,0.836-0.201,1.1,0.141c0.265,0.343,0.202,0.835-0.141,1.1l-1.328,1.026
		l1.328,1.026c0.342,0.265,0.405,0.757,0.141,1.1C15.245,15.29,15.013,15.395,14.779,15.395z"/>
	<path style="fill:#FFFFFF;" d="M31.548,10.088h-10.14c-0.433,0-0.784-0.351-0.784-0.784s0.351-0.784,0.784-0.784h10.14
		c0.433,0,0.784,0.351,0.784,0.784S31.981,10.088,31.548,10.088z"/>
	<path style="fill:#FFFFFF;" d="M37.246,32.12H24.895c-0.433,0-0.784-0.351-0.784-0.784c0-0.433,0.351-0.784,0.784-0.784h12.351
		c0.433,0,0.784,0.351,0.784,0.784C38.03,31.769,37.679,32.12,37.246,32.12z"/>
	<path style="fill:#FFFFFF;" d="M35.116,33.767c-0.235,0-0.466-0.105-0.621-0.304c-0.265-0.343-0.202-0.835,0.141-1.1l1.328-1.026
		l-1.328-1.026c-0.342-0.265-0.405-0.757-0.141-1.1c0.265-0.342,0.756-0.405,1.1-0.141l2.131,1.647
		c0.192,0.149,0.304,0.378,0.304,0.62s-0.112,0.472-0.304,0.62l-2.131,1.647C35.453,33.714,35.284,33.767,35.116,33.767z"/>
	<path style="fill:#FFFFFF;" d="M28.487,35.781h-10.14c-0.433,0-0.784-0.351-0.784-0.784c0-0.433,0.351-0.784,0.784-0.784h10.14
		c0.433,0,0.784,0.351,0.784,0.784C29.271,35.43,28.92,35.781,28.487,35.781z"/>
</g>
<g>
</g>
<g>
</g>
<g>
</g>
<g>
</g>
<g>
</g>
<g>
</g>
<g>
</g>
<g>
</g>
<g>
</g>
<g>
</g>
<g>
</g>
<g>
</g>
<g>
</g>
<g>
</g>
<g>
</g>
</svg>
