<?xml version="1.0" encoding="iso-8859-1"?>
<!-- Generator: Adobe Illustrator 24.0.2, SVG Export Plug-In . SVG Version: 6.00 Build 0)  -->
<svg version="1.1" id="&#x5716;&#x5C64;_1" xmlns="http://www.w3.org/2000/svg" xmlns:xlink="http://www.w3.org/1999/xlink" x="0px"
	 y="0px" viewBox="0 0 50 45" style="enable-background:new 0 0 50 45;" xml:space="preserve">
<g>
	<path style="fill:#FFFFFF;" d="M25,28.695c-1.619,0-2.936-1.283-2.936-2.861c0-0.436,0.363-0.789,0.81-0.789
		c0.447,0,0.81,0.353,0.81,0.789c0,0.707,0.591,1.283,1.316,1.283c0.726,0,1.316-0.575,1.316-1.283c0-0.707-0.591-1.283-1.316-1.283
		c-1.619,0-2.936-1.283-2.936-2.861S23.381,18.83,25,18.83c1.619,0,2.936,1.283,2.936,2.861c0,0.436-0.363,0.789-0.81,0.789
		c-0.447,0-0.81-0.353-0.81-0.789c0-0.707-0.591-1.283-1.316-1.283c-0.726,0-1.316,0.576-1.316,1.283
		c0,0.707,0.591,1.283,1.316,1.283c1.619,0,2.936,1.283,2.936,2.861C27.936,27.412,26.619,28.695,25,28.695z"/>
	<path style="fill:#FFFFFF;" d="M25,20.408c-0.447,0-0.81-0.353-0.81-0.789v-0.881c0-0.436,0.362-0.789,0.81-0.789
		c0.447,0,0.81,0.353,0.81,0.789v0.881C25.81,20.055,25.447,20.408,25,20.408z"/>
	<path style="fill:#FFFFFF;" d="M25,29.576c-0.447,0-0.81-0.353-0.81-0.789v-0.881c0-0.436,0.362-0.789,0.81-0.789
		c0.447,0,0.81,0.353,0.81,0.789v0.881C25.81,29.222,25.447,29.576,25,29.576z"/>
	<path style="fill:#FFFFFF;" d="M18.305,39.387H3.402C1.526,39.387,0,37.9,0,36.073V8.928C0,7.1,1.526,5.613,3.402,5.613h14.903
		c1.876,0,3.402,1.487,3.402,3.314v4.82c0,0.436-0.363,0.789-0.81,0.789c-0.447,0-0.81-0.353-0.81-0.789v-4.82
		c0-0.957-0.799-1.736-1.782-1.736H3.402c-0.983,0-1.782,0.779-1.782,1.736v27.145c0,0.957,0.799,1.736,1.782,1.736h14.903
		c0.983,0,1.782-0.779,1.782-1.736v-1.907c0-0.436,0.363-0.789,0.81-0.789c0.447,0,0.81,0.353,0.81,0.789v1.907
		C21.706,37.9,20.18,39.387,18.305,39.387z"/>
	<path style="fill:#FFFFFF;" d="M16.145,10.453H5.562c-0.447,0-0.81-0.353-0.81-0.789V6.402c0-0.436,0.363-0.789,0.81-0.789h10.583
		c0.447,0,0.81,0.353,0.81,0.789v3.261C16.955,10.1,16.592,10.453,16.145,10.453z M6.372,8.875h8.963V7.192H6.372V8.875z"/>
	<path style="fill:#FFFFFF;" d="M46.598,39.387H31.695c-1.876,0-3.402-1.487-3.402-3.314v-1.907c0-0.436,0.363-0.789,0.81-0.789
		c0.447,0,0.81,0.353,0.81,0.789v1.907c0,0.957,0.799,1.736,1.782,1.736h14.903c0.983,0,1.782-0.779,1.782-1.736V8.928
		c0-0.957-0.799-1.736-1.782-1.736H31.695c-0.983,0-1.782,0.779-1.782,1.736v4.82c0,0.436-0.362,0.789-0.81,0.789
		c-0.447,0-0.81-0.353-0.81-0.789v-4.82c0-1.828,1.526-3.314,3.402-3.314h14.903C48.474,5.613,50,7.1,50,8.928v27.145
		C50,37.9,48.474,39.387,46.598,39.387z"/>
	<path style="fill:#FFFFFF;" d="M44.439,10.453H33.855c-0.447,0-0.81-0.353-0.81-0.789V6.402c0-0.436,0.363-0.789,0.81-0.789h10.583
		c0.447,0,0.81,0.353,0.81,0.789v3.261C45.249,10.1,44.886,10.453,44.439,10.453z M34.665,8.875h8.963V7.192h-8.963V8.875z"/>
	<path style="fill:#FFFFFF;" d="M25,32.232c-4.793,0-8.694-3.799-8.694-8.47c0-4.67,3.9-8.47,8.694-8.47
		c4.794,0,8.693,3.799,8.693,8.47C33.693,28.433,29.794,32.232,25,32.232z M25,16.871c-3.9,0-7.074,3.091-7.074,6.891
		S21.1,30.654,25,30.654c3.9,0,7.073-3.091,7.073-6.891S28.9,16.871,25,16.871z"/>
	<path style="fill:#FFFFFF;" d="M12.932,22.184H5.319c-0.447,0-0.81-0.353-0.81-0.789s0.363-0.789,0.81-0.789h7.613
		c0.447,0,0.81,0.353,0.81,0.789S13.379,22.184,12.932,22.184z"/>
	<path style="fill:#FFFFFF;" d="M12.932,26.919H5.319c-0.447,0-0.81-0.353-0.81-0.789s0.363-0.789,0.81-0.789h7.613
		c0.447,0,0.81,0.353,0.81,0.789S13.379,26.919,12.932,26.919z"/>
	<path style="fill:#FFFFFF;" d="M44.682,22.184h-7.613c-0.447,0-0.81-0.353-0.81-0.789s0.363-0.789,0.81-0.789h7.613
		c0.447,0,0.81,0.353,0.81,0.789S45.129,22.184,44.682,22.184z"/>
	<path style="fill:#FFFFFF;" d="M44.682,26.919h-7.613c-0.447,0-0.81-0.353-0.81-0.789s0.363-0.789,0.81-0.789h7.613
		c0.447,0,0.81,0.353,0.81,0.789S45.129,26.919,44.682,26.919z"/>
	<path style="fill:#FFFFFF;" d="M6.587,23.236c-0.183,0-0.367-0.06-0.518-0.183l-1.296-1.052c-0.184-0.15-0.291-0.372-0.291-0.606
		c0-0.234,0.107-0.456,0.291-0.606l1.296-1.052c0.344-0.278,0.854-0.233,1.141,0.101c0.286,0.335,0.24,0.833-0.104,1.112
		l-0.549,0.446l0.549,0.446c0.344,0.279,0.39,0.777,0.104,1.112C7.049,23.14,6.819,23.236,6.587,23.236z"/>
	<path style="fill:#FFFFFF;" d="M43.386,27.971c-0.232,0-0.462-0.097-0.623-0.284c-0.286-0.335-0.24-0.833,0.104-1.111l0.549-0.446
		l-0.549-0.446c-0.344-0.279-0.39-0.777-0.104-1.112c0.287-0.334,0.798-0.38,1.141-0.101l1.296,1.052
		c0.184,0.15,0.291,0.372,0.291,0.606c0,0.234-0.107,0.456-0.291,0.606l-1.296,1.052C43.753,27.911,43.569,27.971,43.386,27.971z"/>
</g>
<g>
</g>
<g>
</g>
<g>
</g>
<g>
</g>
<g>
</g>
<g>
</g>
<g>
</g>
<g>
</g>
<g>
</g>
<g>
</g>
<g>
</g>
<g>
</g>
<g>
</g>
<g>
</g>
<g>
</g>
</svg>
