<?xml version="1.0" encoding="iso-8859-1"?>
<!-- Generator: Adobe Illustrator 24.0.2, SVG Export Plug-In . SVG Version: 6.00 Build 0)  -->
<svg version="1.1" id="&#x5716;&#x5C64;_1" xmlns="http://www.w3.org/2000/svg" xmlns:xlink="http://www.w3.org/1999/xlink" x="0px"
	 y="0px" viewBox="0 0 50 45" style="enable-background:new 0 0 50 45;" xml:space="preserve">
<path style="fill:#FFFFFF;" d="M46.433,24.74c-0.469,0-0.849,0.38-0.849,0.849v14.856c0,0.933-0.759,1.691-1.691,1.691H19.279
	c-0.933,0-1.691-0.759-1.691-1.691v-4.954c0-0.469-0.38-0.849-0.849-0.849s-0.849,0.38-0.849,0.849v4.954
	c0,1.869,1.521,3.39,3.39,3.39h24.613c1.869,0,3.39-1.521,3.39-3.39V25.589C47.282,25.12,46.902,24.74,46.433,24.74z"/>
<path style="fill:#FFFFFF;" d="M49.598,15.264c-0.01-0.037-0.018-0.074-0.033-0.11l-0.121-0.284
	c-0.012-0.029-0.026-0.056-0.041-0.084l0,0c-0.013-0.026-0.02-0.054-0.034-0.08l-0.015-0.036c-0.035-0.084-0.086-0.156-0.142-0.221
	l-3.19-5.653c-0.655-1.515-2.135-2.492-3.788-2.492H29.508c-0.469,0-0.849,0.38-0.849,0.849c0,0.469,0.38,0.849,0.849,0.849h12.727
	c0.983,0,1.862,0.587,2.24,1.496c0.013,0.031,0.028,0.061,0.044,0.091l3.382,5.992l0.043,0.102c0.013,0.034,0.026,0.065,0.039,0.105
	c0.211,0.546,0.318,1.133,0.318,1.744c0,1.644-0.82,3.11-2.247,4.043c-0.571,0.193-1.164,0.293-1.766,0.293
	c-2.551,0-4.742-1.732-5.329-4.211c-0.109-0.466-0.519-0.791-0.996-0.792c-0.001,0-0.001,0-0.002,0c-0.476,0-0.886,0.325-0.997,0.79
	c-0.588,2.48-2.78,4.212-5.329,4.212c-0.323,0-0.655-0.048-1.005-0.098l-0.151-0.022c-1.428-0.204-2.636-1.187-2.646-1.196
	c-0.361-0.301-0.896-0.251-1.197,0.11c-0.3,0.361-0.251,0.896,0.109,1.197c0.064,0.052,1.579,1.298,3.494,1.572l0.147,0.021
	c0.395,0.057,0.803,0.116,1.249,0.116c2.705,0,5.103-1.489,6.326-3.781c1.223,2.292,3.621,3.781,6.327,3.781
	c0.81,0,1.607-0.137,2.374-0.403c0.003-0.001,0.005-0.002,0.008-0.002c0.016-0.006,0.033-0.009,0.049-0.015
	c0.059-0.021,0.113-0.049,0.164-0.08c0.001-0.001,0.002-0.001,0.003-0.001C48.865,21.818,50,19.802,50,17.533
	C50,16.73,49.859,15.956,49.598,15.264z"/>
<path style="fill:#FFFFFF;" d="M25.598,37.939v0.63c0,0.469,0.38,0.849,0.849,0.849c0.469,0,0.849-0.38,0.849-0.849v-0.63
	c0-2.083,1.695-3.778,3.778-3.778h1.263c2.083,0,3.778,1.695,3.778,3.778v0.63c0,0.469,0.38,0.849,0.849,0.849
	c0.469,0,0.849-0.38,0.849-0.849v-0.63c0-2.514-1.704-4.632-4.016-5.273c1.059-0.695,1.76-1.89,1.76-3.248
	c0-2.142-1.742-3.884-3.884-3.884c-2.142,0-3.884,1.742-3.884,3.884c0,1.366,0.71,2.567,1.779,3.26
	C27.28,33.334,25.598,35.441,25.598,37.939z M31.674,27.232c1.205,0,2.186,0.98,2.186,2.186c0,1.205-0.98,2.186-2.186,2.186
	c-1.205,0-2.186-0.98-2.186-2.186C29.488,28.212,30.469,27.232,31.674,27.232z"/>
<g>
	<path style="fill:#FFFFFF;" d="M14.474,21.972c-1.998,0-3.624-1.626-3.624-3.623c0-0.505,0.409-0.914,0.914-0.914
		c0.505,0,0.914,0.409,0.914,0.914c0,0.99,0.806,1.796,1.796,1.796s1.796-0.805,1.796-1.796c0-0.99-0.806-1.796-1.796-1.796
		c-1.998,0-3.624-1.626-3.624-3.624c0-1.998,1.626-3.624,3.624-3.624c1.998,0,3.624,1.626,3.624,3.624
		c0,0.505-0.409,0.914-0.914,0.914s-0.914-0.409-0.914-0.914c0-0.99-0.806-1.796-1.796-1.796s-1.796,0.806-1.796,1.796
		c0,0.991,0.806,1.796,1.796,1.796c1.998,0,3.624,1.626,3.624,3.624C18.097,20.346,16.472,21.972,14.474,21.972z"/>
	<path style="fill:#FFFFFF;" d="M14.474,30.112C6.493,30.112,0,23.619,0,15.639C0,7.658,6.493,1.165,14.474,1.165
		c7.981,0,14.474,6.493,14.474,14.474C28.947,23.619,22.454,30.112,14.474,30.112z M14.474,2.992
		c-6.973,0-12.646,5.673-12.646,12.646c0,6.973,5.673,12.646,12.646,12.646c6.973,0,12.646-5.673,12.646-12.646
		C27.12,8.665,21.447,2.992,14.474,2.992z"/>
	<path style="fill:#FFFFFF;" d="M14.474,26.538c-6.01,0-10.9-4.889-10.9-10.899c0-6.01,4.89-10.9,10.9-10.9
		c6.01,0,10.9,4.89,10.9,10.9C25.373,21.648,20.483,26.538,14.474,26.538z M14.474,6.567c-5.002,0-9.072,4.07-9.072,9.072
		c0,5.002,4.07,9.071,9.072,9.071s9.072-4.07,9.072-9.071C23.545,10.636,19.476,6.567,14.474,6.567z"/>
	<path style="fill:#FFFFFF;" d="M14.474,11.132c-0.505,0-0.914-0.409-0.914-0.914V9.067c0-0.505,0.409-0.914,0.914-0.914
		c0.505,0,0.914,0.409,0.914,0.914v1.152C15.387,10.723,14.978,11.132,14.474,11.132z"/>
	<path style="fill:#FFFFFF;" d="M14.474,23.124c-0.505,0-0.914-0.409-0.914-0.914v-1.152c0-0.505,0.409-0.914,0.914-0.914
		c0.505,0,0.914,0.409,0.914,0.914v1.152C15.387,22.715,14.978,23.124,14.474,23.124z"/>
</g>
<g>
</g>
<g>
</g>
<g>
</g>
<g>
</g>
<g>
</g>
<g>
</g>
<g>
</g>
<g>
</g>
<g>
</g>
<g>
</g>
<g>
</g>
<g>
</g>
<g>
</g>
<g>
</g>
<g>
</g>
</svg>
