<?xml version="1.0" encoding="iso-8859-1"?>
<!-- Generator: Adobe Illustrator 24.0.2, SVG Export Plug-In . SVG Version: 6.00 Build 0)  -->
<svg version="1.1" id="&#x5716;&#x5C64;_1" xmlns="http://www.w3.org/2000/svg" xmlns:xlink="http://www.w3.org/1999/xlink" x="0px"
	 y="0px" viewBox="0 0 50 45" style="enable-background:new 0 0 50 45;" xml:space="preserve">
<path style="fill:#FFFFFF;" d="M49.196,43.017H0.804C0.36,43.017,0,42.657,0,42.213V2.787c0-0.444,0.36-0.804,0.804-0.804h48.391
	C49.64,1.983,50,2.343,50,2.787v39.426C50,42.657,49.64,43.017,49.196,43.017z M1.609,41.408h46.782V3.592H1.609V41.408z"/>
<path style="fill:#FFFFFF;" d="M17.45,30.325H8.639c-0.444,0-0.804-0.36-0.804-0.804V7.739c0-0.444,0.36-0.804,0.804-0.804h8.811
	c0.444,0,0.804,0.36,0.804,0.804s-0.36,0.804-0.804,0.804H9.444v20.172h8.006c0.444,0,0.804,0.36,0.804,0.804
	C18.254,29.965,17.894,30.325,17.45,30.325z"/>
<path style="fill:#FFFFFF;" d="M41.361,30.325H32.55c-0.444,0-0.804-0.36-0.804-0.804c0-0.444,0.36-0.804,0.804-0.804h8.006V8.544
	H32.55c-0.444,0-0.804-0.36-0.804-0.804s0.36-0.804,0.804-0.804h8.811c0.444,0,0.804,0.36,0.804,0.804v21.781
	C42.166,29.965,41.805,30.325,41.361,30.325z"/>
<path style="fill:#FFFFFF;" d="M4.552,13.898H0.804C0.36,13.898,0,13.538,0,13.093c0-0.444,0.36-0.804,0.804-0.804h2.943V9.882
	H0.804C0.36,9.882,0,9.522,0,9.078c0-0.444,0.36-0.804,0.804-0.804h3.748c0.444,0,0.804,0.36,0.804,0.804v4.016
	C5.356,13.538,4.996,13.898,4.552,13.898z"/>
<path style="fill:#FFFFFF;" d="M4.552,21.442H0.804C0.36,21.442,0,21.082,0,20.638c0-0.444,0.36-0.804,0.804-0.804h2.943v-2.407
	H0.804C0.36,17.427,0,17.067,0,16.622s0.36-0.804,0.804-0.804h3.748c0.444,0,0.804,0.36,0.804,0.804v4.016
	C5.356,21.082,4.996,21.442,4.552,21.442z"/>
<path style="fill:#FFFFFF;" d="M4.552,28.987H0.804C0.36,28.987,0,28.627,0,28.182s0.36-0.804,0.804-0.804h2.943v-2.407H0.804
	C0.36,24.971,0,24.611,0,24.167c0-0.444,0.36-0.804,0.804-0.804h3.748c0.444,0,0.804,0.36,0.804,0.804v4.016
	C5.356,28.627,4.996,28.987,4.552,28.987z"/>
<path style="fill:#FFFFFF;" d="M49.196,13.898h-3.747c-0.444,0-0.804-0.36-0.804-0.804V9.078c0-0.444,0.36-0.804,0.804-0.804h3.747
	C49.64,8.273,50,8.633,50,9.078c0,0.444-0.36,0.804-0.804,0.804h-2.943v2.407h2.943c0.444,0,0.804,0.36,0.804,0.804
	C50,13.538,49.64,13.898,49.196,13.898z"/>
<path style="fill:#FFFFFF;" d="M49.196,21.442h-3.747c-0.444,0-0.804-0.36-0.804-0.804v-4.016c0-0.444,0.36-0.804,0.804-0.804h3.747
	c0.444,0,0.804,0.36,0.804,0.804s-0.36,0.804-0.804,0.804h-2.943v2.407h2.943c0.444,0,0.804,0.36,0.804,0.804
	C50,21.082,49.64,21.442,49.196,21.442z"/>
<path style="fill:#FFFFFF;" d="M49.196,28.987h-3.747c-0.444,0-0.804-0.36-0.804-0.804v-4.016c0-0.444,0.36-0.804,0.804-0.804h3.747
	c0.444,0,0.804,0.36,0.804,0.804c0,0.444-0.36,0.804-0.804,0.804h-2.943v2.407h2.943c0.444,0,0.804,0.36,0.804,0.804
	S49.64,28.987,49.196,28.987z"/>
<path style="fill:#FFFFFF;" d="M32.94,38.737H17.06c-1.618,0-2.934-1.316-2.934-2.934c0-1.618,1.316-2.934,2.934-2.934h15.88
	c1.618,0,2.934,1.316,2.934,2.934C35.874,37.42,34.557,38.737,32.94,38.737z M17.06,34.478c-0.731,0-1.325,0.595-1.325,1.325
	c0,0.73,0.595,1.325,1.325,1.325h15.88c0.731,0,1.325-0.595,1.325-1.325c0-0.731-0.595-1.325-1.325-1.325H17.06z"/>
<path style="fill:#FFFFFF;" d="M41.483,36.607h-2.829c-0.444,0-0.804-0.36-0.804-0.804c0-0.444,0.36-0.804,0.804-0.804h2.829
	c0.444,0,0.804,0.36,0.804,0.804C42.287,36.247,41.927,36.607,41.483,36.607z"/>
<path style="fill:#FFFFFF;" d="M37.284,33.976c-0.347,0-0.668-0.227-0.771-0.577c-0.126-0.426,0.118-0.873,0.544-0.999l2.008-0.593
	c0.427-0.127,0.874,0.118,0.999,0.544c0.126,0.426-0.118,0.873-0.544,0.999l-2.008,0.593C37.436,33.965,37.36,33.976,37.284,33.976z
	"/>
<path style="fill:#FFFFFF;" d="M39.293,39.832c-0.075,0-0.152-0.011-0.228-0.033l-2.008-0.593c-0.426-0.126-0.67-0.573-0.544-0.999
	c0.126-0.426,0.573-0.669,0.999-0.544l2.008,0.593c0.426,0.126,0.67,0.573,0.544,0.999C39.961,39.605,39.64,39.832,39.293,39.832z"
	/>
<path style="fill:#FFFFFF;" d="M11.347,36.607H8.518c-0.444,0-0.804-0.36-0.804-0.804c0-0.444,0.36-0.804,0.804-0.804h2.829
	c0.444,0,0.804,0.36,0.804,0.804C12.151,36.247,11.791,36.607,11.347,36.607z"/>
<path style="fill:#FFFFFF;" d="M12.716,33.976c-0.075,0-0.152-0.011-0.228-0.033L10.48,33.35c-0.426-0.126-0.67-0.573-0.544-0.999
	c0.126-0.426,0.573-0.67,0.999-0.544l2.008,0.593c0.426,0.126,0.67,0.573,0.544,0.999C13.384,33.749,13.063,33.976,12.716,33.976z"
	/>
<path style="fill:#FFFFFF;" d="M10.707,39.832c-0.347,0-0.668-0.227-0.771-0.577c-0.126-0.426,0.118-0.873,0.544-0.999l2.008-0.593
	c0.427-0.126,0.874,0.118,0.999,0.544c0.126,0.426-0.118,0.873-0.544,0.999l-2.008,0.593C10.859,39.821,10.783,39.832,10.707,39.832
	z"/>
<g>
	<path style="fill:#FFFFFF;" d="M18.82,22.421l-0.419-1.103H14.83l-0.419,1.127c-0.164,0.439-0.304,0.736-0.419,0.89
		c-0.116,0.154-0.305,0.231-0.569,0.231c-0.223,0-0.421-0.082-0.593-0.246c-0.172-0.164-0.258-0.349-0.258-0.557
		c0-0.12,0.02-0.244,0.06-0.372c0.04-0.128,0.106-0.305,0.198-0.533l2.247-5.704c0.064-0.164,0.141-0.361,0.231-0.59
		c0.09-0.23,0.186-0.42,0.288-0.572c0.101-0.152,0.235-0.275,0.401-0.368c0.166-0.094,0.37-0.141,0.614-0.141
		c0.247,0,0.454,0.047,0.62,0.141c0.166,0.093,0.3,0.214,0.401,0.362c0.102,0.148,0.188,0.307,0.258,0.476
		c0.07,0.17,0.158,0.397,0.266,0.68l2.295,5.668c0.18,0.431,0.27,0.745,0.27,0.941c0,0.203-0.085,0.39-0.255,0.56
		c-0.17,0.17-0.374,0.255-0.614,0.255c-0.14,0-0.26-0.025-0.36-0.075c-0.1-0.05-0.183-0.117-0.251-0.203
		c-0.068-0.086-0.141-0.218-0.219-0.395C18.943,22.713,18.876,22.556,18.82,22.421z M15.297,19.982h2.624l-1.324-3.625
		L15.297,19.982z"/>
	<path style="fill:#FFFFFF;" d="M26.652,16.099H24.71v6.381c0,0.368-0.082,0.64-0.246,0.818c-0.164,0.178-0.376,0.267-0.635,0.267
		c-0.264,0-0.479-0.09-0.645-0.27c-0.166-0.18-0.248-0.451-0.248-0.815v-6.381h-1.942c-0.303,0-0.529-0.067-0.677-0.201
		c-0.148-0.134-0.222-0.311-0.222-0.53c0-0.228,0.077-0.407,0.231-0.54c0.154-0.132,0.377-0.198,0.668-0.198h5.657
		c0.307,0,0.536,0.068,0.686,0.204c0.149,0.136,0.225,0.313,0.225,0.533c0,0.219-0.076,0.396-0.228,0.53
		C27.183,16.032,26.955,16.099,26.652,16.099z"/>
	<path style="fill:#FFFFFF;" d="M31.583,22.091l-1.408-5.596v6.063c0,0.336-0.075,0.588-0.225,0.755
		c-0.15,0.168-0.349,0.252-0.596,0.252c-0.24,0-0.436-0.083-0.588-0.248c-0.152-0.166-0.227-0.419-0.227-0.758v-6.95
		c0-0.384,0.1-0.642,0.299-0.776c0.2-0.133,0.47-0.201,0.809-0.201h0.551c0.332,0,0.572,0.03,0.722,0.09
		c0.15,0.06,0.26,0.168,0.332,0.324c0.072,0.156,0.154,0.409,0.246,0.761l1.276,4.811l1.277-4.811
		c0.092-0.352,0.173-0.605,0.246-0.761c0.072-0.156,0.182-0.264,0.332-0.324s0.39-0.09,0.722-0.09h0.551
		c0.34,0,0.609,0.067,0.809,0.201c0.199,0.134,0.3,0.393,0.3,0.776v6.95c0,0.336-0.075,0.588-0.225,0.755
		c-0.15,0.168-0.35,0.252-0.602,0.252c-0.236,0-0.43-0.084-0.581-0.252c-0.152-0.168-0.228-0.419-0.228-0.755v-6.063l-1.408,5.596
		c-0.092,0.364-0.166,0.63-0.225,0.8c-0.058,0.17-0.165,0.325-0.32,0.464c-0.156,0.14-0.372,0.21-0.647,0.21
		c-0.207,0-0.384-0.045-0.527-0.135c-0.144-0.089-0.256-0.205-0.336-0.344c-0.08-0.14-0.143-0.295-0.189-0.464
		C31.677,22.451,31.631,22.275,31.583,22.091z"/>
</g>
<g>
</g>
<g>
</g>
<g>
</g>
<g>
</g>
<g>
</g>
<g>
</g>
<g>
</g>
<g>
</g>
<g>
</g>
<g>
</g>
<g>
</g>
<g>
</g>
<g>
</g>
<g>
</g>
<g>
</g>
</svg>
